<svg width="128" height="48" viewBox="0 0 128 48" fill="none" xmlns="http://www.w3.org/2000/svg"><rect y="0.848114" width="47.8068" height="46.3128" rx="23.1564" fill="#F9610F"></rect><mask id="mask0_37_24221" maskUnits="userSpaceOnUse" x="9" y="5" width="26" height="35" style="mask-type: luminance;"><path d="M9.58435 5.64032H34.883V39.1707H9.58435V5.64032Z" fill="white"></path></mask><g mask="url(#mask0_37_24221)"><mask id="mask1_37_24221" maskUnits="userSpaceOnUse" x="9" y="5" width="26" height="35" style="mask-type: luminance;"><path d="M9.58368 39.1631L9.63959 9.17797L34.8823 5.63212L34.8264 35.614L9.58368 39.1631Z" fill="white"></path></mask><g mask="url(#mask1_37_24221)"><path d="M22.1669 7.41824C21.2656 7.54653 20.3644 7.984 19.6242 8.7208L10.4929 17.6249C9.937 18.1578 9.62122 18.9143 9.61793 19.6807L9.59162 33.7852C9.58833 36.7719 11.8218 38.8474 14.5619 38.4626L29.5286 36.3574C32.4792 35.943 34.5942 32.407 34.6534 29.496L34.8574 17.7532C34.887 16.5559 34.4133 15.5132 33.5745 14.8356L24.8675 8.09913C24.0912 7.50376 23.1274 7.28338 22.1669 7.41824ZM14.5652 37.6929C12.2198 38.0251 10.3251 36.2127 10.3317 33.6832L10.358 19.5788C10.358 19.0656 10.5686 18.5525 10.937 18.1874L20.0683 9.25696C20.6768 8.65831 21.4137 8.29978 22.1801 8.19123C22.9695 8.08268 23.759 8.28333 24.3906 8.76356L33.0976 15.5296C33.7817 16.0296 34.1502 16.8881 34.1206 17.8288L33.9133 29.6012C33.8837 32.1373 32.0614 35.2062 29.5319 35.591L14.5652 37.6929Z" fill="#FFF6FA"></path></g></g><mask id="mask2_37_24221" maskUnits="userSpaceOnUse" x="11" y="7" width="26" height="34" style="mask-type: luminance;"><path d="M11.2532 7.15721H36.5519V40.7047H11.2532V7.15721Z" fill="white"></path></mask><g mask="url(#mask2_37_24221)"><mask id="mask3_37_24221" maskUnits="userSpaceOnUse" x="11" y="7" width="26" height="34" style="mask-type: luminance;"><path d="M11.2559 40.7166L11.3118 10.715L36.5545 7.16918L36.4986 37.1675L11.2559 40.7166Z" fill="white"></path></mask><g mask="url(#mask3_37_24221)"><path d="M23.8661 8.94932C22.9615 9.0776 22.0537 9.51508 21.2971 10.2453L12.1921 19.1461C11.6395 19.7053 11.2941 20.4651 11.2941 21.2052L11.2678 35.3393C11.2612 38.2964 13.498 40.3982 16.238 40.0134L31.2047 37.9115C34.1553 37.4675 36.2967 33.9545 36.3263 31.0501L36.5335 19.2777C36.5631 18.1067 36.0895 17.0377 35.2474 16.3897L26.5404 9.62363C25.7707 9.02826 24.82 8.81446 23.8661 8.94932ZM16.238 39.2174C13.8927 39.5463 12.0013 37.7668 12.0046 35.234L12.0309 21.1C12.0309 20.6164 12.2447 20.077 12.6394 19.7086L21.7445 10.8078C22.353 10.2124 23.1161 9.8473 23.853 9.74533C24.6457 9.6335 25.4352 9.80783 26.0667 10.3144L34.7737 17.0508C35.4579 17.5804 35.823 18.4389 35.823 19.3764L35.6158 31.1487C35.5599 33.6585 33.7343 36.7307 31.2047 37.1155L16.238 39.2174Z" fill="#FFF1E9"></path></g></g><mask id="mask4_37_24221" maskUnits="userSpaceOnUse" x="12" y="8" width="27" height="35" style="mask-type: luminance;"><path d="M12.9237 8.83832H38.2223V42.3687H12.9237V8.83832Z" fill="white"></path></mask><g mask="url(#mask4_37_24221)"><mask id="mask5_37_24221" maskUnits="userSpaceOnUse" x="12" y="8" width="27" height="35" style="mask-type: luminance;"><path d="M12.9255 42.3611L12.9814 12.376L38.2241 8.83012L38.1682 38.812L12.9255 42.3611Z" fill="white"></path></mask><g mask="url(#mask5_37_24221)"><path d="M25.5123 10.6097C24.611 10.738 23.7097 11.1755 22.9696 11.9123L13.8383 20.8164C13.2824 21.3492 12.9666 22.1058 12.9633 22.8722L12.937 36.9767C12.9337 39.9633 15.1672 42.0389 17.9073 41.654L32.874 39.5489C35.8246 39.1344 37.9396 35.5985 37.9988 32.717L38.2028 20.9447C38.2324 19.7474 37.7587 18.7047 36.9166 18.0567L28.2129 11.2906C27.4366 10.6952 26.4728 10.4748 25.5123 10.6097ZM17.9106 40.8843C15.5652 41.2166 13.6705 39.4042 13.6771 36.8747L13.7034 22.7702C13.7034 22.2571 13.914 21.744 14.2824 21.3788L23.4137 12.4747C24.0222 11.8498 24.7591 11.4912 25.4992 11.386C26.2886 11.2774 27.0781 11.4781 27.736 11.955L36.443 18.7211C37.1271 19.2211 37.4956 20.0796 37.466 21.0499L37.2587 32.7927C37.2291 35.3287 35.4068 38.3976 32.8773 38.7825L17.9106 40.8843Z" fill="#FFF1E9"></path></g></g><path d="M64.0338 19.8025H61.3173V24.0545H59.1575V11.7204H64.0338C66.5142 11.7204 68.1171 13.3402 68.1171 15.753C68.1171 18.1321 66.4973 19.8025 64.0338 19.8025ZM63.612 13.6439H61.3173V17.879H63.5783C65.0631 17.879 65.8561 17.086 65.8561 15.7361C65.8561 14.3863 65.0462 13.6439 63.612 13.6439ZM74.8607 15.6855V17.5922H74.1015C72.6166 17.5922 71.6886 18.3852 71.6886 20.005V24.0545H69.6301V15.7361H71.5705L71.6886 16.951C72.043 16.1242 72.836 15.5674 73.9496 15.5674C74.2364 15.5674 74.5233 15.6011 74.8607 15.6855ZM75.4846 19.87C75.4846 17.2716 77.3575 15.483 79.9391 15.483C82.5207 15.483 84.3936 17.2716 84.3936 19.87C84.3936 22.4684 82.5207 24.257 79.9391 24.257C77.3575 24.257 75.4846 22.4684 75.4846 19.87ZM77.5431 19.87C77.5431 21.3886 78.5218 22.4178 79.9391 22.4178C81.3564 22.4178 82.3351 21.3886 82.3351 19.87C82.3351 18.3514 81.3564 17.3222 79.9391 17.3222C78.5218 17.3222 77.5431 18.3514 77.5431 19.87ZM86.0252 27.9184V15.7193H87.9319L88.0669 16.9847C88.573 16.023 89.6698 15.4662 90.9353 15.4662C93.2806 15.4662 94.8329 17.1703 94.8329 19.7856C94.8329 22.3841 93.4156 24.2739 90.9353 24.2739C89.6867 24.2739 88.6068 23.7845 88.0837 22.9409V27.9184H86.0252ZM88.1006 19.8869C88.1006 21.3886 89.0286 22.4178 90.4459 22.4178C91.897 22.4178 92.7575 21.3717 92.7575 19.8869C92.7575 18.4021 91.897 17.3391 90.4459 17.3391C89.0286 17.3391 88.1006 18.3852 88.1006 19.8869ZM100.201 24.2739C97.7206 24.2739 95.9827 22.4684 95.9827 19.8869C95.9827 17.2716 97.6868 15.4662 100.133 15.4662C102.631 15.4662 104.217 17.1366 104.217 19.735V20.3593L97.9399 20.3762C98.0918 21.8441 98.8679 22.5866 100.235 22.5866C101.365 22.5866 102.108 22.1479 102.344 21.3548H104.25C103.896 23.1771 102.378 24.2739 100.201 24.2739ZM100.15 17.1535C98.9354 17.1535 98.193 17.8115 97.9905 19.0601H102.175C102.175 17.9127 101.382 17.1535 100.15 17.1535ZM111.095 15.6855V17.5922H110.335C108.851 17.5922 107.923 18.3852 107.923 20.005V24.0545H105.864V15.7361H107.805L107.923 16.951C108.277 16.1242 109.07 15.5674 110.184 15.5674C110.47 15.5674 110.757 15.6011 111.095 15.6855ZM115.652 24.0545H113.594V17.4403H111.991V15.7193H113.594V13.1208H115.652V15.7193H117.272V17.4403H115.652V24.0545ZM117.826 27.9184V26.1974H119.058C119.868 26.1974 120.374 26.0118 120.728 25.0331L120.965 24.4088L117.607 15.7193H119.784L121.926 21.7935L124.187 15.7193H126.313L122.23 25.9105C121.606 27.4628 120.728 28.104 119.362 28.104C118.788 28.104 118.282 28.0365 117.826 27.9184Z" fill="#241C15"></path><path d="M58.4489 32.1625C58.4489 30.0027 60.2374 28.501 62.8358 28.501C65.333 28.501 66.9191 29.8846 66.9866 32.1118H64.8269C64.7762 31.0488 64.017 30.4245 62.8021 30.4245C61.4691 30.4245 60.6086 31.0657 60.6086 32.095C60.6086 32.9724 61.0811 33.4617 62.1103 33.6979L64.0507 34.1197C66.1598 34.5753 67.1891 35.6552 67.1891 37.4943C67.1891 39.789 65.4005 41.2739 62.684 41.2739C60.0518 41.2739 58.3308 39.8734 58.2801 37.663H60.4399C60.4568 38.7092 61.3004 39.3335 62.684 39.3335C64.1182 39.3335 65.0293 38.7092 65.0293 37.6799C65.0293 36.8531 64.6075 36.3638 63.5951 36.1445L61.6379 35.7058C59.5456 35.2502 58.4489 34.0522 58.4489 32.1625ZM68.3499 36.87C68.3499 34.2716 70.2228 32.483 72.8043 32.483C75.3859 32.483 77.2588 34.2716 77.2588 36.87C77.2588 39.4684 75.3859 41.257 72.8043 41.257C70.2228 41.257 68.3499 39.4684 68.3499 36.87ZM70.4084 36.87C70.4084 38.3886 71.387 39.4178 72.8043 39.4178C74.2217 39.4178 75.2003 38.3886 75.2003 36.87C75.2003 35.3514 74.2217 34.3222 72.8043 34.3222C71.387 34.3222 70.4084 35.3514 70.4084 36.87ZM84.1211 32.6855V34.5922H83.3618C81.877 34.5922 80.949 35.3852 80.949 37.005V41.0545H78.8905V32.7361H80.8309L80.949 33.951C81.3033 33.1242 82.0963 32.5674 83.21 32.5674C83.4968 32.5674 83.7836 32.6011 84.1211 32.6855ZM88.6786 41.0545H86.6201V34.4403H85.0172V32.7193H86.6201V30.1208H88.6786V32.7193H90.2984V34.4403H88.6786V41.0545ZM95.2247 41.2739C92.7444 41.2739 91.0064 39.4684 91.0064 36.8869C91.0064 34.2716 92.7106 32.4662 95.1572 32.4662C97.6544 32.4662 99.2405 34.1366 99.2405 36.735V37.3593L92.9637 37.3762C93.1156 38.8441 93.8917 39.5866 95.2584 39.5866C96.3889 39.5866 97.1313 39.1479 97.3676 38.3548H99.2742C98.9199 40.1771 97.4013 41.2739 95.2247 41.2739ZM95.1741 34.1535C93.9592 34.1535 93.2168 34.8115 93.0143 36.0601H97.1988C97.1988 34.9127 96.4058 34.1535 95.1741 34.1535ZM104.313 41.2739C101.9 41.2739 100.399 39.5022 100.399 36.9206C100.399 34.3222 101.917 32.4662 104.431 32.4662C105.595 32.4662 106.625 32.9555 107.148 33.7823V28.501H109.189V41.0545H107.3L107.165 39.7553C106.658 40.717 105.579 41.2739 104.313 41.2739ZM104.769 39.3841C106.203 39.3841 107.131 38.3548 107.131 36.8531C107.131 35.3514 106.203 34.3053 104.769 34.3053C103.335 34.3053 102.457 35.3683 102.457 36.8531C102.457 38.338 103.335 39.3841 104.769 39.3841Z" fill="#F9610F"></path></svg>